<svg width="15" height="15" viewBox="0 0 15 15" fill="none" xmlns="http://www.w3.org/2000/svg">
<path d="M8 4.15503C6 4.15503 4.40625 5.78003 4.40625 7.74878C4.40625 9.74878 6 11.3425 8 11.3425C9.96875 11.3425 11.5938 9.74878 11.5938 7.74878C11.5938 5.78003 9.96875 4.15503 8 4.15503ZM8 10.0925C6.71875 10.0925 5.65625 9.06128 5.65625 7.74878C5.65625 6.46753 6.6875 5.43628 8 5.43628C9.28125 5.43628 10.3125 6.46753 10.3125 7.74878C10.3125 9.06128 9.28125 10.0925 8 10.0925ZM12.5625 4.03003C12.5625 3.56128 12.1875 3.18628 11.7188 3.18628C11.25 3.18628 10.875 3.56128 10.875 4.03003C10.875 4.49878 11.25 4.87378 11.7188 4.87378C12.1875 4.87378 12.5625 4.49878 12.5625 4.03003ZM14.9375 4.87378C14.875 3.74878 14.625 2.74878 13.8125 1.93628C13 1.12378 12 0.873779 10.875 0.811279C9.71875 0.748779 6.25 0.748779 5.09375 0.811279C3.96875 0.873779 3 1.12378 2.15625 1.93628C1.34375 2.74878 1.09375 3.74878 1.03125 4.87378C0.96875 6.03003 0.96875 9.49878 1.03125 10.655C1.09375 11.78 1.34375 12.7488 2.15625 13.5925C3 14.405 3.96875 14.655 5.09375 14.7175C6.25 14.78 9.71875 14.78 10.875 14.7175C12 14.655 13 14.405 13.8125 13.5925C14.625 12.7488 14.875 11.78 14.9375 10.655C15 9.49878 15 6.03003 14.9375 4.87378ZM13.4375 11.8738C13.2188 12.4988 12.7188 12.9675 12.125 13.2175C11.1875 13.5925 9 13.4988 8 13.4988C6.96875 13.4988 4.78125 13.5925 3.875 13.2175C3.25 12.9675 2.78125 12.4988 2.53125 11.8738C2.15625 10.9675 2.25 8.78003 2.25 7.74878C2.25 6.74878 2.15625 4.56128 2.53125 3.62378C2.78125 3.03003 3.25 2.56128 3.875 2.31128C4.78125 1.93628 6.96875 2.03003 8 2.03003C9 2.03003 11.1875 1.93628 12.125 2.31128C12.7188 2.53003 13.1875 3.03003 13.4375 3.62378C13.8125 4.56128 13.7188 6.74878 13.7188 7.74878C13.7188 8.78003 13.8125 10.9675 13.4375 11.8738Z" fill="white"/>
</svg>
