<svg width="194" height="48" viewBox="0 0 194 48" fill="none" xmlns="http://www.w3.org/2000/svg">
<g clip-path="url(#clip0_1:296)">
<path d="M178.138 0.00337219V27.8844H180.916V2.77652H193.49V0.00337219H178.138Z" fill="url(#paint0_linear_1:296)"/>
<path d="M174.802 0H165.557V2.76296H174.802V0Z" fill="url(#paint1_linear_1:296)"/>
<path d="M73.0107 17.6619L66.019 14.4707V20.8496L73.0107 17.6619Z" fill="#EF1D07"/>
<path d="M69.0111 2.76977C72.2074 9.15889 75.3833 15.5174 78.5727 21.8964L81.5444 27.8369H84.6522C84.6012 27.7281 84.5671 27.6466 84.5263 27.565C79.9877 18.4684 75.4389 9.36847 70.8799 0.265094C70.8405 0.186175 70.7797 0.119824 70.7045 0.0735778C70.6293 0.0273314 70.5427 0.00302945 70.4544 0.00340548C69.5251 0.00340548 68.5958 0.0237963 67.6666 0.00340548C67.5463 -0.000940609 67.4273 0.0286299 67.3231 0.0887406C67.219 0.148851 67.1339 0.237068 67.0777 0.343253C62.5572 9.39225 58.03 18.4401 53.4959 27.4868C53.4449 27.5888 53.4006 27.6907 53.3292 27.8471C54.2006 27.8471 55.2285 27.8471 56.0863 27.8471C56.1898 27.849 56.2918 27.8216 56.3803 27.7681C56.4689 27.7145 56.5404 27.6371 56.5867 27.5446C60.6578 19.4019 64.7324 11.2625 68.8103 3.1266C68.8647 3.03484 68.926 2.92949 69.0111 2.76977Z" fill="url(#paint2_linear_1:296)"/>
<path d="M3.28168 -3.8147e-06H0.517677V13.9575V27.8912H3.27827V15.4087H21.3838V12.5981H3.28849L3.28168 -3.8147e-06Z" fill="url(#paint3_linear_1:296)"/>
<path d="M25.6551 0.0237923V15.4223H25.6789V27.8913H28.4395V0.0237923H25.6551Z" fill="url(#paint4_linear_1:296)"/>
<path d="M145.351 0.0237868C144.5 0.0237868 143.649 0.0237868 142.795 0.0237868C142.722 0.0194601 142.649 0.0389662 142.587 0.0793978C142.526 0.119829 142.479 0.179004 142.455 0.248077L136.052 15.8097L132.137 25.3254L130.871 22.4537C127.94 15.6296 124.475 7.37127 121.65 0.825821C121.537 0.570936 121.486 0.2107 121.285 0.0849568C121.085 -0.0407866 120.727 0.0339889 120.438 0.0305904H118.341C118.382 0.135943 118.409 0.217499 118.443 0.299062C118.828 1.20306 119.216 2.10365 119.6 3.01784C120.639 5.45114 121.755 8.09515 122.899 10.8105C121.272 14.7935 119.75 18.7528 118.157 22.4639L116.891 25.3356L112.976 15.8199C110.841 10.6338 108.707 5.44661 106.574 0.258282C106.547 0.190699 106.499 0.132993 106.439 0.0929012C106.378 0.0528099 106.306 0.0322595 106.233 0.0339922C105.379 0.0339922 104.531 0.0339922 103.673 0.0339922H103.432C103.469 0.132548 103.493 0.207308 103.524 0.282074C107.316 9.4081 111.108 18.5341 114.9 27.6602C114.923 27.7373 114.973 27.8036 115.041 27.8472C115.109 27.8908 115.191 27.9088 115.271 27.898H116.421H118.916C120.656 23.8199 122.582 19.2285 124.512 14.644C126.439 19.2319 128.383 23.8573 130.108 27.898H132.6H133.754C133.834 27.9079 133.914 27.8895 133.981 27.846C134.049 27.8025 134.098 27.7367 134.122 27.6602C137.914 18.5319 141.707 9.40583 145.501 0.282074C145.532 0.207308 145.555 0.132548 145.593 0.0339922L145.351 0.0237868Z" fill="url(#paint5_linear_1:296)"/>
<path d="M130.085 1.42053C130.241 1.0433 130.425 0.669469 130.578 0.292239C130.612 0.210676 130.643 0.12912 130.68 0.0237672H128.583C128.294 0.0237672 127.943 -0.0544068 127.736 0.0781336C127.528 0.210674 127.487 0.564133 127.375 0.819018C126.936 1.83856 126.497 2.79693 126.013 3.87764C126.507 5.02972 127.007 6.20559 127.511 7.39505C128.423 5.2846 129.264 3.42223 130.085 1.42053Z" fill="url(#paint6_linear_1:296)"/>
<path d="M21.3355 45.5803L20.2735 47.8505H19.5927L23.8136 38.7902L27.7996 47.8505H27.1188L26.0976 45.5803H21.3355ZM23.7795 40.3195L21.6249 44.9584H25.8321L23.7795 40.3195Z" fill="white"/>
<path d="M56.4063 47.8504H53.1623C52.368 47.857 51.5867 47.6479 50.9021 47.2455C50.2205 46.8499 49.6548 46.2828 49.2614 45.6007C48.8623 44.9098 48.6522 44.1263 48.6522 43.3288C48.6522 42.5312 48.8623 41.7477 49.2614 41.0569C49.6563 40.3732 50.2215 39.8031 50.9021 39.4018C51.5117 39.043 52.1986 38.8353 52.9052 38.7963C53.6118 38.7573 54.3175 38.888 54.963 39.1776C55.5313 39.4282 56.0413 39.7939 56.4607 40.2515L56.0046 40.6763C55.4059 40.0336 54.6065 39.6128 53.7372 39.4825C52.8678 39.3523 51.98 39.5203 51.2187 39.9592C50.6303 40.2991 50.1411 40.7864 49.7993 41.373C49.456 41.9659 49.2752 42.6388 49.2752 43.3237C49.2752 44.0086 49.456 44.6814 49.7993 45.2744C50.1396 45.8657 50.6289 46.3578 51.2187 46.7018C51.8059 47.0525 52.4781 47.2358 53.1623 47.2319H55.7561V44.0238H52.8049V43.4019H56.4063V47.8504Z" fill="white"/>
<path d="M79.0732 47.8505V38.8989H84.8598V39.5344H79.6757V43.0586H83.7399V43.6941H79.6995V47.2048H84.8837V47.8505H79.0732Z" fill="white"/>
<path d="M107.646 40.5812V47.8505H107.026V38.7902L113.232 46.1988V38.8989H113.855V48.0034L107.646 40.5812Z" fill="white"/>
<path d="M140.555 47.9422C139.472 47.9442 138.425 47.5542 137.607 46.8445C137.412 46.6834 137.234 46.5023 137.076 46.3041C136.386 45.4762 136.011 44.4314 136.018 43.3543C136.011 42.5525 136.22 41.7637 136.624 41.0705C137.02 40.3801 137.59 39.8049 138.278 39.4019C138.891 39.0417 139.582 38.8335 140.293 38.7945C141.004 38.7554 141.713 38.8868 142.363 39.1776C142.947 39.4367 143.471 39.8139 143.901 40.2855L143.418 40.7103C143.056 40.3014 142.612 39.9736 142.114 39.7485C141.62 39.5211 141.082 39.4051 140.538 39.4087C139.848 39.4037 139.17 39.5871 138.577 39.9388C137.985 40.2878 137.494 40.7843 137.151 41.3798C136.803 41.9829 136.62 42.6667 136.62 43.3628C136.62 44.0588 136.803 44.7426 137.151 45.3458C137.495 45.9395 137.986 46.4347 138.577 46.7833C139.125 47.1039 139.743 47.2849 140.377 47.3104C141.011 47.3359 141.641 47.2051 142.213 46.9295C142.739 46.6741 143.204 46.3077 143.574 45.8555L144.071 46.2396C143.65 46.7736 143.112 47.2047 142.499 47.5004C141.893 47.7933 141.228 47.9444 140.555 47.9422Z" fill="white"/>
<path d="M169.495 44.0782L173.025 38.8989H173.771L169.798 44.7545V47.8505H169.179V44.7545L165.206 38.8989H165.948L169.495 44.0782Z" fill="white"/>
</g>
<defs>
<linearGradient id="paint0_linear_1:296" x1="178.138" y1="13.9439" x2="193.49" y2="13.9439" gradientUnits="userSpaceOnUse">
<stop stop-color="#F69D52"/>
<stop offset="0.45" stop-color="#E04730"/>
<stop offset="1" stop-color="#A31E23"/>
</linearGradient>
<linearGradient id="paint1_linear_1:296" x1="4648.24" y1="11.2452" x2="4899.43" y2="11.2452" gradientUnits="userSpaceOnUse">
<stop stop-color="#F69D52"/>
<stop offset="0.45" stop-color="#E04730"/>
<stop offset="1" stop-color="#A31E23"/>
</linearGradient>
<linearGradient id="paint2_linear_1:296" x1="43707" y1="19071.3" x2="46589.4" y2="19071.3" gradientUnits="userSpaceOnUse">
<stop stop-color="#F69D52"/>
<stop offset="0.45" stop-color="#E04730"/>
<stop offset="1" stop-color="#A31E23"/>
</linearGradient>
<linearGradient id="paint3_linear_1:296" x1="0.517677" y1="13.9456" x2="21.3838" y2="13.9456" gradientUnits="userSpaceOnUse">
<stop stop-color="#F69D52"/>
<stop offset="0.45" stop-color="#E04730"/>
<stop offset="1" stop-color="#A31E23"/>
</linearGradient>
<linearGradient id="paint4_linear_1:296" x1="3679.84" y1="19089.2" x2="3702.62" y2="19089.2" gradientUnits="userSpaceOnUse">
<stop stop-color="#F69D52"/>
<stop offset="0.45" stop-color="#E04730"/>
<stop offset="1" stop-color="#A31E23"/>
</linearGradient>
<linearGradient id="paint5_linear_1:296" x1="65067.1" y1="19103.8" x2="70289.2" y2="19103.8" gradientUnits="userSpaceOnUse">
<stop stop-color="#F69D52"/>
<stop offset="0.45" stop-color="#E04730"/>
<stop offset="1" stop-color="#A31E23"/>
</linearGradient>
<linearGradient id="paint6_linear_1:296" x1="7626.79" y1="4841.86" x2="7690.54" y2="4841.86" gradientUnits="userSpaceOnUse">
<stop stop-color="#F69D52"/>
<stop offset="0.45" stop-color="#E04730"/>
<stop offset="1" stop-color="#A31E23"/>
</linearGradient>
<clipPath id="clip0_1:296">
<rect width="192.98" height="48" fill="white" transform="translate(0.510193)"/>
</clipPath>
</defs>
</svg>
