<svg width="160" height="72" viewBox="0 0 160 72" fill="none" xmlns="http://www.w3.org/2000/svg">
<path d="M0 3C0 1.34315 1.34315 0 3 0H157C158.657 0 160 1.34315 160 3V69C160 70.6569 158.657 72 157 72H3C1.34315 72 0 70.6569 0 69V3Z" fill="url(#paint0_linear_6:331)"/>
<path fill-rule="evenodd" clip-rule="evenodd" d="M51.0827 26.1955C50.6588 26.2422 50.3934 26.3602 50.143 26.6132C49.6776 27.0832 49.652 28.0418 50.0915 28.5452C50.2669 28.7462 50.5741 28.9172 50.8886 28.9891C51.0621 29.0288 51.5723 29.0283 51.7624 28.9881C52.0346 28.9307 52.2739 28.8021 52.4671 28.6092C52.6514 28.4253 52.7084 28.3328 52.8036 28.0634C52.8518 27.9269 52.8624 27.8435 52.8625 27.6018C52.8626 27.3481 52.8528 27.2783 52.7927 27.1017C52.6677 26.7351 52.4672 26.5045 52.1304 26.3397C51.8352 26.1953 51.5011 26.1493 51.0827 26.1955ZM36.6257 30.2608C35.8455 30.328 35.099 30.6095 34.4464 31.0828C34.1039 31.3311 34.0769 31.3476 34.037 31.3324C34.0128 31.3231 33.9706 31.2204 33.9288 31.0688C33.891 30.9321 33.8311 30.7761 33.7956 30.7221C33.6822 30.5495 33.6391 30.5415 32.7837 30.5362C32.1018 30.5318 32.0095 30.5363 31.8661 30.5803C31.7784 30.6073 31.6714 30.659 31.6282 30.6952L31.5498 30.761L31.5564 37.1597L31.563 43.5585L31.6637 43.6429C31.7191 43.6893 31.8072 43.7401 31.8594 43.7557C31.9797 43.7917 33.9667 43.795 34.0909 43.7594C34.1963 43.7292 34.2396 43.6746 34.2644 43.5404C34.2748 43.484 34.2841 42.5274 34.2852 41.4147C34.2869 39.5415 34.2903 39.3895 34.3306 39.364C34.3652 39.3423 34.3945 39.3526 34.472 39.4135C34.9241 39.769 35.6476 40.0532 36.3301 40.1435C36.5807 40.1766 37.1381 40.1835 37.3838 40.1565C38.4054 40.0444 39.3379 39.4557 39.9665 38.5259C40.1505 38.2537 40.3995 37.7535 40.5188 37.4158C40.6477 37.0515 40.7717 36.5211 40.8184 36.134C40.8889 35.5511 40.8811 34.6772 40.799 33.9491C40.749 33.5051 40.548 32.7896 40.3802 32.4579C40.3435 32.3853 40.3135 32.3199 40.3135 32.3125C40.3135 32.2841 40.0465 31.839 39.9414 31.6923C39.2698 30.7545 38.3185 30.2804 37.0625 30.2579C36.8788 30.2546 36.6822 30.2559 36.6257 30.2608ZM66.3208 30.2632C66.0509 30.2797 65.596 30.3497 65.3571 30.4114C64.718 30.5765 64.3122 30.7526 63.5788 31.1832C63.3781 31.3009 63.2043 31.3973 63.1927 31.3973C63.181 31.3973 63.1212 31.3285 63.0599 31.2445C62.7751 30.8542 62.3539 30.5498 61.9236 30.4233C61.5464 30.3125 61.4663 30.3004 60.9626 30.2785C60.3443 30.2517 59.6859 30.3562 59.071 30.5787C58.8729 30.6504 58.2413 30.9488 58.0586 31.0571C57.794 31.214 57.6397 31.3098 57.5861 31.3506C57.498 31.4178 57.4327 31.4095 57.3995 31.3268C57.3839 31.288 57.3621 31.2332 57.3511 31.205C57.34 31.1768 57.3114 31.0796 57.2875 30.989C57.2281 30.7646 57.1411 30.64 57.0079 30.5893C56.9159 30.5542 56.7796 30.5495 56.0521 30.5561C55.1233 30.5646 55.1244 30.5644 55.0201 30.7234C54.9772 30.7887 54.9747 31.0354 54.9747 35.2698C54.9747 39.5042 54.9772 39.7509 55.0201 39.8162C55.1275 39.9798 55.0948 39.9757 56.2971 39.9757C57.4801 39.9757 57.518 39.9717 57.5863 39.8393C57.6158 39.7821 57.6228 39.1937 57.6285 36.3229C57.6349 33.0935 57.6381 32.8721 57.6798 32.8261C57.8167 32.6752 58.5266 32.4353 59.1075 32.3437C59.2037 32.3286 59.4639 32.32 59.6857 32.3248C60.064 32.3329 60.0983 32.3378 60.243 32.4052C60.5096 32.5294 60.6987 32.755 60.7882 33.0556C60.8292 33.1932 60.8339 33.4691 60.8463 36.4623C60.8589 39.4966 60.8629 39.7254 60.9048 39.8093C60.9901 39.9802 60.953 39.975 62.146 39.9832C63.3762 39.9917 63.3909 39.9899 63.4788 39.8219C63.5324 39.7195 63.5325 39.7116 63.5387 36.3213C63.5421 34.4524 63.551 32.8973 63.5584 32.8656C63.5659 32.8338 63.6152 32.7814 63.6679 32.7491C63.8397 32.6439 64.3905 32.4597 64.766 32.382C65.0029 32.3329 65.2308 32.3167 65.5737 32.3244C65.9673 32.3332 65.9783 32.335 66.1468 32.4178C66.3896 32.5371 66.524 32.701 66.6455 33.0258C66.6911 33.1478 66.6941 33.3127 66.7063 36.4238C66.7206 40.0585 66.7086 39.83 66.8906 39.9292C66.9694 39.9721 67.061 39.9757 68.0555 39.9757C69.0971 39.9757 69.138 39.9739 69.2248 39.9232C69.2813 39.8902 69.3262 39.8377 69.3454 39.7821C69.3866 39.6633 69.3925 32.7318 69.3517 32.4314C69.1822 31.1844 68.3591 30.3919 67.1175 30.2805C66.9192 30.2627 66.4836 30.2533 66.3208 30.2632ZM75.1741 30.3467C74.9999 30.3655 74.8401 30.3878 74.7362 30.4077C74.7085 30.413 74.587 30.4359 74.4661 30.4584C73.9615 30.5527 73.3662 30.7981 72.9206 31.0956C72.0261 31.6927 71.383 32.7552 71.1159 34.0773C71.0122 34.5904 70.9905 34.8684 71.0049 35.4984C71.0162 35.9921 71.0299 36.1445 71.0977 36.5306C71.3091 37.7342 71.6154 38.4132 72.2362 39.0543C72.7929 39.6292 73.5285 39.9954 74.4931 40.1778C75.3209 40.3344 76.0742 40.3349 77.0733 40.1797C77.5167 40.1109 77.8086 40.0393 78.2781 39.8845C78.7502 39.7287 78.887 39.6266 78.9353 39.394C78.9479 39.3331 78.9565 39.0154 78.9543 38.6879C78.9505 38.1297 78.947 38.088 78.8972 38.0211C78.793 37.881 78.6182 37.8896 77.8982 38.07C76.9238 38.3141 75.9849 38.3563 75.1613 38.193C74.8946 38.1401 74.5529 38.0065 74.4108 37.8995C74.3726 37.8707 74.2881 37.8068 74.223 37.7574C73.7541 37.4018 73.4365 36.6455 73.4871 36.005C73.4903 35.9641 73.5066 35.9601 73.6129 35.9741C73.68 35.983 73.7754 36.0006 73.8249 36.0134C73.983 36.054 74.4958 36.117 74.8142 36.135C76.0302 36.2033 77.2423 36.0145 77.9881 35.6404C78.5376 35.3648 78.9594 34.9241 79.1527 34.4235C79.241 34.1949 79.246 34.1751 79.2997 33.8504C79.3595 33.4886 79.3502 33.0006 79.2771 32.6616C79.0593 31.6517 78.3273 30.8793 77.2814 30.5557C76.7931 30.4047 76.3861 30.342 75.8423 30.3343C75.5737 30.3305 75.2731 30.3361 75.1741 30.3467ZM47.5059 30.4885C46.8034 30.6154 46.2765 30.9207 45.5532 31.6202C45.2529 31.9106 45.2121 31.9204 45.1707 31.7115C45.1547 31.6304 45.126 31.5121 45.1069 31.4486C45.0879 31.3852 45.0524 31.2467 45.0281 31.1409C44.9756 30.9117 44.889 30.7106 44.8139 30.6433C44.7059 30.5464 44.5535 30.5313 43.7443 30.5375C42.9114 30.5438 42.8114 30.5572 42.7354 30.673C42.6933 30.7371 42.6906 31.009 42.6906 35.2618V39.7824L42.7711 39.8627C42.8226 39.9142 42.892 39.9508 42.9638 39.9647C43.1059 39.9921 44.9098 39.9925 45.0763 39.9651C45.1576 39.9518 45.2241 39.9212 45.269 39.8763L45.3376 39.8079L45.3505 36.592L45.3633 33.3762L45.423 33.3127C45.4912 33.2403 45.6628 33.1738 46.0315 33.0767C46.6439 32.9155 47.1472 32.8569 47.7148 32.8808C48.5347 32.9154 48.6289 32.8973 48.7218 32.6877C48.7686 32.5821 48.774 32.5086 48.7796 31.9009C48.788 30.9801 48.7691 30.6857 48.6951 30.582C48.6601 30.5328 48.6006 30.4913 48.5425 30.4752C48.4075 30.4378 47.7391 30.4463 47.5059 30.4885ZM50.2225 30.5647C50.0945 30.6086 50.0331 30.6685 50.0023 30.7793C49.9856 30.8392 49.9765 32.4197 49.9764 35.2788C49.9762 40.225 49.9591 39.8102 50.1683 39.9113C50.2753 39.963 50.3102 39.9643 51.3591 39.9573C52.4034 39.9503 52.442 39.9483 52.5104 39.8974C52.5493 39.8684 52.5953 39.8049 52.6127 39.7563C52.658 39.6297 52.6607 30.8616 52.6155 30.733C52.5985 30.6849 52.5521 30.6214 52.5122 30.5919C52.4414 30.5396 52.4127 30.5382 51.3787 30.5351C50.5785 30.5328 50.2944 30.54 50.2225 30.5647ZM76.1391 32.2378C76.5245 32.3752 76.7316 32.5607 76.8445 32.8697C76.9057 33.0369 76.9158 33.1036 76.9162 33.3401C76.9166 33.5951 76.9106 33.6287 76.8363 33.7897C76.6695 34.1508 76.4407 34.3226 75.9662 34.4427C75.7092 34.5079 75.6501 34.5131 75.187 34.5125C74.7384 34.512 74.342 34.4931 74.1976 34.4654C74.1693 34.46 74.0247 34.4411 73.8763 34.4235C73.7279 34.4059 73.5863 34.381 73.5615 34.3681C73.4979 34.3351 73.5033 34.1832 73.5794 33.87C73.7076 33.342 73.9053 32.9538 74.1853 32.6803C74.3849 32.4853 74.5625 32.3735 74.8178 32.282C75.0998 32.1809 75.1958 32.1684 75.611 32.178C75.9134 32.185 76.0272 32.1979 76.1391 32.2378ZM36.7232 32.3441C37.0094 32.4183 37.2319 32.5325 37.409 32.6962C37.9476 33.1937 38.182 34.0791 38.1482 35.4878C38.1339 36.0829 38.0726 36.4666 37.9187 36.9239C37.7063 37.5552 37.2889 37.963 36.6939 38.1206C36.4435 38.1869 35.9015 38.2021 35.572 38.1521C35.1618 38.0899 34.5358 37.8593 34.3775 37.7121C34.2567 37.5998 34.2558 37.5792 34.265 35.2185C34.2697 33.9984 34.2798 32.9638 34.2874 32.9194C34.295 32.875 34.326 32.8072 34.3563 32.7688C34.4637 32.6326 35.134 32.3761 35.569 32.3049C35.8659 32.2562 36.4627 32.2765 36.7232 32.3441ZM101.708 44.2277C101.701 44.2338 101.534 44.2464 101.336 44.2557C101.026 44.2702 100.64 44.3054 100.462 44.3352C100.434 44.3399 100.283 44.3622 100.128 44.3847C99.8883 44.4193 99.6379 44.465 99.5367 44.4925C99.5226 44.4963 99.4001 44.5278 99.2645 44.5624C98.9781 44.6354 98.29 44.8651 98.0847 44.9562C97.4663 45.2307 97.1468 45.4033 96.7355 45.6852C96.3166 45.9724 96.1814 46.1339 96.1783 46.3507C96.1755 46.5589 96.327 46.6711 96.5793 46.6476C96.7885 46.6282 97.8238 46.5064 97.9049 46.4917C98.059 46.4638 98.1837 46.4506 98.7658 46.4C99.7308 46.3161 99.8525 46.3101 100.59 46.3101C101.535 46.3101 102.067 46.3708 102.52 46.5302C102.911 46.668 103.101 46.8436 103.218 47.1745C103.455 47.8474 103.079 49.7141 102.221 52.1188C102.164 52.281 102.095 52.4772 102.068 52.5548C102.042 52.6324 101.972 52.8228 101.914 52.9779C101.685 53.5818 101.606 53.8338 101.606 53.9519C101.606 54.1579 101.681 54.2453 101.861 54.2466C102.047 54.2479 102.182 54.1608 102.549 53.8034C103.213 53.1564 103.768 52.3508 104.302 51.2597C105.013 49.8069 105.397 48.4336 105.604 46.6051C105.663 46.0847 105.638 45.5195 105.54 45.2001C105.48 45.002 105.315 44.8198 105.113 44.7289C105.043 44.6971 104.979 44.6701 104.972 44.669C104.965 44.6679 104.936 44.6542 104.908 44.6387C104.866 44.6156 104.548 44.5135 104.445 44.4901C104.431 44.4869 104.402 44.4772 104.381 44.4686C104.349 44.4553 103.866 44.3599 103.7 44.3338C103.565 44.3125 103.218 44.2733 103.045 44.2597C102.785 44.2393 101.723 44.2139 101.708 44.2277ZM55.4198 44.8709C55.2179 44.9774 55.1527 45.2326 55.2642 45.4798C55.3584 45.6888 56.7316 46.9645 57.7759 47.8134C58.1079 48.0832 58.5159 48.4102 58.5887 48.4649C58.6259 48.4928 58.8803 48.6843 59.1541 48.8904C59.925 49.4707 60.4087 49.8054 61.5408 50.542C61.7655 50.6881 62.2419 50.9762 62.6202 51.1947C62.7262 51.2559 62.8544 51.332 62.9052 51.3638C63.2634 51.5885 65.0876 52.5287 65.6269 52.7667C65.6764 52.7886 65.8499 52.8664 66.0124 52.9396C66.3535 53.0933 66.7806 53.2774 66.9569 53.3467C67.024 53.3731 67.1946 53.4413 67.3359 53.4982C67.6936 53.6422 67.8917 53.7191 68.1454 53.8122C68.4608 53.928 69.9119 54.4114 70.2142 54.5014C70.8733 54.6978 70.8513 54.6916 71.8461 54.9539C71.9804 54.9893 72.1654 55.034 72.2573 55.0532C72.3492 55.0724 72.4937 55.1056 72.5785 55.127C73.1933 55.2823 74.7843 55.5726 75.5596 55.6708C75.7292 55.6923 75.9894 55.7269 76.1378 55.7477C76.3709 55.7803 76.6549 55.8086 77.4485 55.878C77.5403 55.8861 77.6411 55.8967 77.6724 55.9016C77.7036 55.9065 77.8771 55.9178 78.0578 55.9265C78.2386 55.9353 78.4327 55.9471 78.4893 55.9527C79.1288 56.0161 82.1136 56.0158 82.4469 55.9523C82.4752 55.9469 82.6295 55.9352 82.7899 55.9263C82.9503 55.9174 83.1064 55.9061 83.1368 55.9013C83.2077 55.8901 83.3682 55.8742 83.9246 55.8236C84.172 55.8011 84.4495 55.7725 84.5414 55.7602C84.6333 55.7478 84.9396 55.7079 85.2223 55.6715C85.5048 55.6351 85.765 55.5993 85.8005 55.5919C85.8359 55.5846 86.073 55.5447 86.3275 55.5033C86.7556 55.4337 87.4928 55.297 87.6124 55.2649C87.6407 55.2573 87.8026 55.2217 87.9722 55.1857C88.3091 55.1141 88.9259 54.973 88.9873 54.9534C89.0085 54.9466 89.1357 54.9131 89.27 54.879C89.6941 54.7712 89.9914 54.6903 90.3622 54.5819C90.5601 54.524 90.8203 54.4479 90.9404 54.4127C91.2014 54.3363 92.4462 53.913 92.8807 53.7528C94.4278 53.1827 96.3508 52.2938 97.6222 51.561C98.066 51.3051 98.6853 50.934 98.9071 50.7908C99.6062 50.3396 99.916 50.1211 100.858 49.4146C101.161 49.187 101.345 48.9734 101.402 48.781C101.438 48.6599 101.435 48.3983 101.396 48.2689C101.35 48.117 101.135 47.9057 100.972 47.8524C100.706 47.7659 100.447 47.7915 100.136 47.9352C100.047 47.9764 99.8753 48.0529 99.7552 48.1053C99.635 48.1577 99.4767 48.2282 99.4034 48.262C99.3301 48.2957 99.2629 48.3233 99.254 48.3233C99.2452 48.3233 99.178 48.351 99.1047 48.3847C98.9076 48.4755 98.4734 48.6567 98.4529 48.6567C98.4431 48.6567 98.388 48.6787 98.3306 48.7056C98.2731 48.7325 98.122 48.7949 97.9948 48.8443C97.8676 48.8937 97.6883 48.9634 97.5965 48.9992C97.0936 49.1951 95.7441 49.6677 95.2065 49.8362C94.9732 49.9093 94.7362 49.9848 94.6796 50.0041C94.5874 50.0355 94.4242 50.0838 93.7288 50.2856C93.5338 50.3422 93.0923 50.4635 92.6109 50.5928C92.2089 50.7007 91.2334 50.9365 90.8591 51.0162C89.9245 51.2152 88.878 51.4173 88.4091 51.4895C88.2677 51.5112 88.1232 51.5341 88.0878 51.5403C87.8283 51.5861 87.6763 51.6092 87.4068 51.6438C87.1074 51.6822 87.0433 51.6915 86.8543 51.7239C86.8048 51.7324 86.5215 51.7673 86.2247 51.8014C85.9278 51.8355 85.6503 51.8684 85.6079 51.8745C85.5655 51.8806 85.2475 51.9091 84.9012 51.9377C84.5549 51.9664 84.2079 51.9958 84.1302 52.003C84.0525 52.0102 83.8963 52.0224 83.7833 52.03C83.6702 52.0377 83.5256 52.0484 83.462 52.0538C82.7586 52.1134 79.373 52.1134 78.6824 52.0537C78.5258 52.0401 78.1107 52.0122 77.9368 52.0035C77.859 51.9996 77.7145 51.9894 77.6155 51.9808C77.5166 51.9722 77.3605 51.9594 77.2686 51.9523C76.5643 51.8986 76.3913 51.8821 76.2149 51.852C76.1796 51.846 76.0697 51.8335 75.9708 51.8242C75.5167 51.7816 75.3313 51.7584 74.4545 51.634C73.9525 51.5628 73.0468 51.4199 72.8998 51.3887C72.8644 51.3812 72.7314 51.3571 72.6042 51.3351C72.4091 51.3015 71.5121 51.1269 71.3057 51.0824C70.3329 50.8727 69.3471 50.6304 68.4281 50.3752C68.3221 50.3457 68.2073 50.3157 68.1729 50.3085C68.1386 50.3012 68.0997 50.2887 68.0865 50.2805C68.0668 50.2684 67.8139 50.1965 67.6572 50.1586C67.6067 50.1464 67.366 50.0716 66.7834 49.8873C66.5219 49.8045 66.2733 49.7287 66.2309 49.719C66.1885 49.7091 66.1375 49.6883 66.1177 49.6726C66.0979 49.6569 66.0747 49.6455 66.0663 49.6472C66.0471 49.6511 66.0685 49.6577 65.6398 49.5157C65.4419 49.4502 65.2569 49.3858 65.2286 49.3727C65.2003 49.3596 65.0789 49.315 64.9588 49.2736C64.8386 49.2322 64.6305 49.1565 64.4962 49.1055C64.3619 49.0545 64.1769 48.9854 64.085 48.9519C63.9931 48.9184 63.8312 48.8568 63.7252 48.815C63.6192 48.7732 63.4515 48.7075 63.3526 48.669C63.2536 48.6306 63.1127 48.5717 63.0394 48.5382C62.966 48.5046 62.8988 48.4772 62.89 48.4772C62.8811 48.4772 62.8106 48.4483 62.7334 48.4131C62.6561 48.3778 62.5875 48.349 62.5809 48.349C62.5687 48.349 62.2075 48.1916 61.9577 48.0775C61.8831 48.0434 61.8169 48.0156 61.8105 48.0156C61.8041 48.0156 61.709 47.9741 61.5992 47.9234C61.4893 47.8728 61.3243 47.7971 61.2324 47.7553C61.1405 47.7135 60.9972 47.6482 60.9138 47.6102C60.235 47.3009 58.4111 46.3591 57.7245 45.9634C57.668 45.9308 57.5292 45.8528 57.4161 45.7899C57.3031 45.727 57.1816 45.6554 57.1463 45.6307C57.111 45.606 57.0242 45.5552 56.9535 45.5178C56.8829 45.4803 56.747 45.4009 56.6517 45.3414C56.2962 45.1192 55.9347 44.9083 55.8467 44.8716C55.6931 44.8076 55.5403 44.8073 55.4198 44.8709Z" fill="#00AAE4"/>
<path fill-rule="evenodd" clip-rule="evenodd" d="M61.3606 16.0246C60.7905 16.0834 60.3801 16.1901 60.0114 16.3754C59.391 16.6873 58.9625 17.2204 58.8004 17.8821C58.7488 18.0925 58.7554 18.1585 58.8357 18.2384C58.9034 18.3058 58.928 18.311 59.4332 18.3647C60.3777 18.4651 60.3127 18.4645 60.3902 18.3725C60.4271 18.3288 60.4766 18.2266 60.5002 18.1456C60.5545 17.9595 60.5952 17.8811 60.6993 17.7626C60.9601 17.466 61.4612 17.3422 61.8794 17.4711C62.1492 17.5543 62.3299 17.7425 62.404 18.0174C62.4538 18.2026 62.4827 18.818 62.4437 18.8649C62.4255 18.8869 62.3328 18.9072 62.2022 18.918C61.8305 18.9488 61.0124 19.0587 60.7469 19.1136C59.7879 19.312 59.1727 19.7135 58.8198 20.3716C58.3897 21.1736 58.4587 22.2589 58.9816 22.9142C59.2001 23.1881 59.52 23.3907 59.914 23.5046C60.0914 23.5559 60.1698 23.5624 60.6025 23.5614C61.0143 23.5604 61.1254 23.5516 61.3121 23.505C61.7319 23.4002 62.1239 23.1759 62.5081 22.8207L62.7176 22.6269L62.8913 22.8714C62.9868 23.0059 63.1622 23.2078 63.281 23.32C63.463 23.4919 63.5107 23.5241 63.5836 23.5241C63.6835 23.5241 63.7784 23.4924 63.8301 23.4417C63.85 23.4223 64.0802 23.2228 64.3417 22.9985C64.6032 22.7741 64.8312 22.5727 64.8484 22.5508C64.9028 22.4818 64.8849 22.3601 64.801 22.2276C64.7569 22.1578 64.7133 22.095 64.7041 22.0879C64.648 22.0446 64.4554 21.7024 64.3983 21.5444C64.3221 21.3336 64.3261 21.4479 64.3076 18.9464C64.2991 17.7961 64.2988 17.7915 64.232 17.5426C64.1483 17.2311 64.0194 16.9833 63.8357 16.7807C63.5211 16.4338 63.0646 16.2002 62.4865 16.0903C61.9985 15.9974 61.759 15.9834 61.3606 16.0246ZM78.9258 16.0047C78.8693 16.0088 78.6727 16.0341 78.489 16.0608C77.7075 16.1743 77.1933 16.4136 76.7653 16.8628C76.4671 17.1756 76.3031 17.4811 76.201 17.9133C76.1474 18.14 76.1644 18.2142 76.2842 18.2753C76.3738 18.321 77.5989 18.4567 77.7074 18.4329C77.7967 18.4134 77.8712 18.3101 77.8977 18.169C77.9436 17.9247 78.1679 17.6451 78.4064 17.5348C78.8196 17.3436 79.3583 17.4007 79.6132 17.6627C79.7986 17.8531 79.8633 18.0937 79.8637 18.5932C79.8639 18.8713 79.8619 18.8817 79.806 18.8933C79.7742 18.8999 79.5169 18.93 79.2342 18.9602C77.8126 19.1118 77.1708 19.3263 76.6482 19.8245C76.2665 20.1885 76.0584 20.5928 75.9806 21.122C75.9382 21.4105 75.9644 21.948 76.0332 22.1997C76.2176 22.8743 76.6847 23.3381 77.3582 23.5152C77.6069 23.5806 78.3711 23.582 78.6637 23.5175C78.8873 23.4683 79.1729 23.3621 79.2767 23.2896C79.3143 23.2634 79.3533 23.242 79.3634 23.242C79.405 23.242 79.7169 23.0004 79.913 22.8163C80.0282 22.7081 80.1258 22.624 80.1297 22.6294C80.1337 22.6349 80.1933 22.7201 80.2621 22.8188C80.443 23.078 80.6011 23.2586 80.7711 23.4C80.9367 23.5378 81.0561 23.5617 81.1752 23.481C81.231 23.4431 81.5023 23.2136 81.6497 23.0796C81.6781 23.0537 81.8305 22.9227 81.9883 22.7884C82.1501 22.6509 82.2818 22.5182 82.2903 22.4846C82.312 22.3982 82.2708 22.3097 82.0938 22.0631C82.0074 21.9428 81.9054 21.775 81.8672 21.6904C81.7202 21.3654 81.7171 21.323 81.7146 19.5887C81.7122 17.8765 81.7013 17.6917 81.5833 17.3493C81.402 16.8235 80.9307 16.4037 80.2824 16.1906C79.8951 16.0632 79.2789 15.9788 78.9258 16.0047ZM68.8445 16.1371C68.3317 16.2754 67.8907 16.6701 67.6786 17.1809C67.6473 17.2562 67.6123 17.3179 67.6007 17.3179C67.5892 17.3179 67.5797 17.105 67.5797 16.8449C67.5797 16.3819 67.5784 16.3703 67.5178 16.2999L67.4558 16.2279L66.7679 16.2203C66.2803 16.2149 66.0587 16.2215 66.0065 16.2431C65.8474 16.3088 65.8579 16.0539 65.8579 19.8577V23.3349L65.9367 23.4103L66.0155 23.4856L66.748 23.4868C67.4091 23.4879 67.4878 23.4836 67.5564 23.4419C67.5982 23.4166 67.6422 23.3699 67.6541 23.3381C67.6661 23.3064 67.6764 22.311 67.6769 21.1262C67.6776 19.6508 67.6873 18.9046 67.7075 18.7582C67.8037 18.0614 68.0639 17.7739 68.5997 17.7724C68.7778 17.772 68.8322 17.7827 68.9549 17.8426C69.1793 17.9521 69.2914 18.1291 69.3667 18.4924C69.4024 18.6649 69.4073 18.9781 69.4053 20.9652C69.4028 23.4731 69.3976 23.3888 69.5581 23.4561C69.6162 23.4805 69.8235 23.4885 70.3545 23.4869L71.0723 23.4847L71.1501 23.4104L71.2278 23.3361L71.2287 21.2117C71.2296 19.0252 71.2414 18.7058 71.3326 18.4112C71.4596 18.0008 71.8208 17.7547 72.2485 17.787C72.5133 17.807 72.6981 17.8979 72.8001 18.0583C72.9698 18.3253 72.9612 18.1835 72.9705 20.8789C72.9797 23.5505 72.9715 23.4146 73.126 23.4665C73.1639 23.4792 73.5135 23.4887 73.9028 23.4876C74.7007 23.4853 74.7225 23.4806 74.7762 23.2998C74.8079 23.1927 74.7978 17.8599 74.7655 17.6513C74.7095 17.29 74.5786 16.9697 74.3915 16.7358C74.1725 16.4618 73.7498 16.2135 73.3526 16.1253C73.0731 16.0633 72.5487 16.0823 72.3084 16.1632C71.7718 16.3438 71.4229 16.645 71.1758 17.1406L71.0841 17.3246L71.0141 17.1818C70.8288 16.8039 70.5385 16.4626 70.2684 16.3051C69.9925 16.1442 69.836 16.1058 69.4172 16.0958C69.0944 16.0882 69.0013 16.0949 68.8445 16.1371ZM91.3931 16.1267C90.2302 16.3573 89.4136 17.2503 89.106 18.6278C89.0112 19.0527 88.984 19.3236 88.9842 19.8437C88.9845 20.9529 89.2476 21.8608 89.7691 22.5521C90.1478 23.0541 90.6314 23.3803 91.2357 23.5411C91.4689 23.6033 91.5354 23.6096 91.9552 23.6096C92.3729 23.6096 92.4428 23.603 92.6748 23.542C93.706 23.2708 94.4791 22.4386 94.8176 21.2354C94.9475 20.7739 94.9858 20.4674 94.9852 19.8952C94.9847 19.3407 94.9451 18.9917 94.8318 18.5434C94.4916 17.1971 93.6575 16.3281 92.5108 16.125C92.2435 16.0777 91.6357 16.0786 91.3931 16.1267ZM99.0151 16.1387C98.4959 16.2744 98.1325 16.6096 97.838 17.2244C97.7587 17.3899 97.725 17.4401 97.7232 17.3948C97.7219 17.3595 97.7187 17.1146 97.7163 16.8504L97.7118 16.3701L97.6405 16.2991L97.5693 16.2279H96.8509H96.1325L96.0614 16.2989L95.9902 16.3699L95.9992 19.8508C96.0048 22.0525 96.0173 23.349 96.0332 23.3788C96.0863 23.4782 96.1899 23.4911 96.9023 23.4872C97.2768 23.4851 97.6116 23.4738 97.6461 23.462C97.6806 23.4502 97.7294 23.416 97.7545 23.3861C97.7972 23.3351 97.8001 23.2111 97.8009 21.4056C97.8014 20.3267 97.8134 19.3341 97.8282 19.1488C97.8985 18.2681 98.2183 17.7893 98.7569 17.7582C99.1735 17.7341 99.4222 17.9373 99.5547 18.41C99.611 18.611 99.6117 18.6359 99.6254 20.9852C99.633 22.2899 99.6493 23.373 99.6616 23.392C99.7172 23.4781 99.8357 23.4908 100.553 23.4882C101.181 23.4859 101.268 23.4805 101.329 23.4407C101.367 23.416 101.411 23.372 101.426 23.3429C101.467 23.2669 101.445 18.1545 101.402 17.8692C101.308 17.2313 101.164 16.8978 100.85 16.5841C100.495 16.23 100.108 16.0857 99.5185 16.0883C99.2938 16.0893 99.1482 16.1039 99.0151 16.1387ZM83.5227 16.2099C83.4927 16.2143 83.4406 16.247 83.4071 16.2827C83.3465 16.347 83.3461 16.3518 83.3461 16.9375V17.5275L83.4182 17.5894L83.4903 17.6513H84.671C85.3204 17.6513 85.8517 17.6609 85.8517 17.6727C85.8517 17.6844 85.8037 17.7623 85.7449 17.8458C85.6862 17.9292 85.5497 18.1244 85.4417 18.2796C85.3337 18.4347 84.7905 19.2126 84.2346 20.0082C83.6788 20.8039 83.1994 21.5078 83.1694 21.5726C83.1185 21.6825 83.1142 21.7398 83.1066 22.4221C83.0988 23.1275 83.1004 23.1561 83.1512 23.2206C83.2373 23.3299 83.3047 23.3297 83.5429 23.2197C84.2293 22.9027 84.795 22.7644 85.5194 22.7364C86.308 22.7059 87.148 22.872 87.8238 23.1919C88.0697 23.3084 88.1574 23.3208 88.2392 23.251C88.3294 23.1739 88.3425 23.0708 88.3361 22.4854C88.3283 21.7667 88.3231 21.7552 87.9205 21.5553C87.365 21.2795 86.5994 21.1134 85.884 21.1134C85.739 21.1134 85.6204 21.1089 85.6204 21.1034C85.6204 21.0943 86.058 20.4696 86.2332 20.2286C86.3004 20.1362 87.8549 17.9196 88.0047 17.7026C88.0387 17.6532 88.0965 17.5551 88.133 17.4846C88.1965 17.3618 88.1994 17.3372 88.2021 16.9047C88.2053 16.3941 88.1917 16.3109 88.0944 16.2473C88.0301 16.2053 87.8787 16.2023 85.8014 16.2021C84.5782 16.202 83.5528 16.2055 83.5227 16.2099ZM92.3818 17.5437C92.5424 17.6213 92.6746 17.7594 92.7659 17.945C92.8549 18.126 92.9548 18.5511 92.9983 18.9335C93.0398 19.2984 93.0398 20.5197 92.9984 20.8426C92.8984 21.6226 92.6441 22.0642 92.2208 22.1933C92.1148 22.2257 91.8353 22.2239 91.7094 22.1901C91.3437 22.0918 91.0513 21.5225 90.9787 20.7672C90.9692 20.6684 90.9565 20.5588 90.9505 20.5235C90.9329 20.4202 90.9344 19.1147 90.9523 18.9464C91.0423 18.1004 91.2784 17.6425 91.6941 17.5071C91.8607 17.4528 92.2352 17.4727 92.3818 17.5437ZM62.4554 20.2671C62.4589 20.6532 62.4289 21.0165 62.3769 21.2194C62.2308 21.7896 61.8174 22.2032 61.3609 22.2358C60.9545 22.2648 60.6716 22.0771 60.5381 21.6899C60.4724 21.4995 60.4797 21.0162 60.5512 20.8185C60.6032 20.6748 60.7119 20.505 60.8159 20.4052C61.1018 20.1309 61.6599 19.9572 62.2215 19.9678L62.4528 19.9722L62.4554 20.2671ZM79.8568 20.4787C79.8403 21.0734 79.8002 21.2777 79.6406 21.5809C79.376 22.0833 78.9472 22.3156 78.4699 22.215C78.3285 22.1852 78.2917 22.1638 78.1655 22.0382C77.9573 21.8309 77.9019 21.6751 77.9004 21.2929C77.8991 20.9595 77.9375 20.7986 78.0665 20.5981C78.3304 20.1877 78.8623 19.9731 79.6427 19.9625L79.8712 19.9593L79.8568 20.4787ZM95.476 26.1658C95.053 26.197 94.739 26.3281 94.4886 26.5779C94.2226 26.8434 94.1022 27.1586 94.1015 27.5912C94.1007 28.0282 94.2294 28.3709 94.4912 28.6294C94.7855 28.9199 95.2075 29.0552 95.7443 29.0311C96.4699 28.9986 96.9562 28.6663 97.1404 28.0772C97.221 27.8194 97.2208 27.3575 97.1398 27.0985C97.0062 26.6712 96.6793 26.3646 96.2033 26.2202C95.9986 26.1581 95.7904 26.1426 95.476 26.1658ZM105.501 26.276C105.446 26.2929 105.377 26.3393 105.347 26.379C105.293 26.4511 105.293 26.4589 105.286 28.6991C105.282 30.0125 105.269 30.9567 105.256 30.9704C105.241 30.9845 105.133 30.935 104.983 30.8454C104.68 30.6652 104.186 30.4487 103.877 30.3606C103.27 30.1878 102.621 30.1589 102.038 30.2785C101.293 30.431 100.619 30.7724 100.148 31.2345C99.4623 31.9081 98.9752 32.979 98.812 34.1725C98.7403 34.6969 98.7473 35.9441 98.8246 36.4365C99.0056 37.5878 99.4444 38.5268 100.114 39.1944C100.636 39.7155 101.188 39.9932 102.009 40.147C102.459 40.2313 103.098 40.2268 103.507 40.1364C104.128 39.9992 104.681 39.7355 105.252 39.3044C105.314 39.2574 105.374 39.219 105.385 39.219C105.407 39.219 105.463 39.3655 105.522 39.5781C105.544 39.6556 105.585 39.7561 105.613 39.8012C105.712 39.9625 105.722 39.9639 106.765 39.9684C107.794 39.973 107.804 39.9717 107.912 39.8262L107.966 39.7538L107.972 33.1545C107.977 27.9132 107.972 26.5354 107.947 26.459C107.929 26.4061 107.882 26.3386 107.842 26.309C107.771 26.2567 107.742 26.2552 106.685 26.2503C105.904 26.2467 105.573 26.2539 105.501 26.276ZM113.684 30.3621C112.509 30.5182 111.529 31.0529 110.869 31.8973C109.969 33.0491 109.605 34.7796 109.896 36.5263C109.989 37.0878 110.176 37.7115 110.368 38.1035C110.55 38.4755 110.728 38.7301 111.015 39.0266C111.606 39.6394 112.398 40.0338 113.381 40.2044C113.831 40.2826 114.949 40.3053 115.47 40.2468C115.979 40.1897 116.716 40.0134 117.292 39.8108C117.533 39.7264 117.66 39.64 117.723 39.5193C117.777 39.4174 117.78 39.3777 117.781 38.8087C117.782 38.4772 117.774 38.1641 117.763 38.1127C117.752 38.0614 117.713 37.9893 117.676 37.9525C117.578 37.8551 117.427 37.864 116.867 38.0003C115.76 38.2695 115.006 38.3271 114.182 38.2051C113.598 38.1185 113.228 37.9491 112.9 37.6185C112.655 37.3711 112.548 37.1986 112.435 36.8649C112.36 36.6419 112.234 36.0248 112.257 35.9878C112.262 35.9797 112.459 36.0048 112.694 36.0435C113.255 36.1357 113.565 36.1606 114.172 36.1622C115.267 36.1652 116.104 36.0092 116.775 35.6777C117.569 35.2848 118.008 34.7094 118.141 33.8848C118.219 33.4056 118.179 32.8392 118.035 32.398C117.659 31.2389 116.674 30.5268 115.2 30.3485C114.907 30.3131 113.991 30.3213 113.684 30.3621ZM123.115 30.3484C121.595 30.5189 120.45 31.2807 119.825 32.5384C119.418 33.3558 119.252 34.1599 119.252 35.3081C119.252 36.1767 119.335 36.7494 119.557 37.4191C119.928 38.5364 120.608 39.3275 121.611 39.8089C122.079 40.0335 122.562 40.1716 123.141 40.2467C123.485 40.2913 124.373 40.2849 124.713 40.2353C126.565 39.9653 127.787 38.8398 128.252 36.9751C128.393 36.4135 128.467 35.6763 128.448 35.0468C128.362 32.2711 126.939 30.5849 124.481 30.346C124.171 30.3158 123.393 30.3172 123.115 30.3484ZM83.7767 30.5287C83.7308 30.5417 83.6743 30.5812 83.6511 30.6165C83.5681 30.7429 83.6126 30.9131 83.9756 31.8588C84.1624 32.3454 84.4767 33.1648 84.6741 33.6796C84.8715 34.1945 85.06 34.6849 85.0929 34.7696C85.2963 35.2913 86.2083 37.6686 86.2637 37.8214C86.2893 37.8919 86.364 38.0881 86.4298 38.2573C86.4955 38.4266 86.6294 38.776 86.7273 39.0339C86.8252 39.2918 86.9338 39.5588 86.9686 39.6273C87.0444 39.7766 87.2021 39.9178 87.3386 39.9586C87.4069 39.9791 87.7519 39.9882 88.4374 39.9878C89.354 39.9873 89.4452 39.9833 89.5395 39.9399C89.735 39.8499 89.7739 39.7827 90.0537 39.0523C90.1617 38.7702 90.277 38.4702 90.31 38.3856C90.3429 38.3009 90.5802 37.6835 90.8372 37.0135C91.4313 35.4653 91.8008 34.504 91.8773 34.3079C92.4716 32.7845 93.1517 30.9575 93.1677 30.8414C93.1786 30.7614 93.1708 30.7136 93.1388 30.6648C93.0497 30.5292 93.0126 30.5252 91.8267 30.5252C90.6201 30.5252 90.6285 30.5242 90.4865 30.6857C90.3761 30.8111 90.3736 30.8193 89.3558 34.2567C88.7712 36.2311 88.414 37.4126 88.3954 37.4328C88.3844 37.4448 88.3561 37.3871 88.3325 37.3046C88.3089 37.2221 88.1933 36.8257 88.0754 36.4237C87.9576 36.0217 87.7492 35.3062 87.6123 34.8337C87.4754 34.3612 87.2302 33.5245 87.0674 32.9744C86.9046 32.4243 86.7567 31.9223 86.7386 31.8588C86.5913 31.3406 86.4325 30.8364 86.3912 30.7556C86.3301 30.6362 86.2357 30.5594 86.1077 30.525C85.9858 30.4922 83.894 30.4956 83.7767 30.5287ZM94.5765 30.5514C94.4556 30.5769 94.388 30.6226 94.3391 30.7119C94.2964 30.7899 94.2938 31.0454 94.2938 35.2568C94.2938 39.5767 94.2954 39.7222 94.3423 39.8164C94.4335 39.9998 94.4203 39.9979 95.6302 39.9977C96.8145 39.9976 96.847 39.9938 96.9452 39.8442C96.9903 39.7756 96.9922 39.5879 96.9922 35.2662V30.7598L96.9385 30.6874C96.8289 30.5396 96.8284 30.5396 95.6944 30.5373C95.122 30.5361 94.6189 30.5424 94.5765 30.5514ZM114.902 32.2414C115.475 32.3917 115.749 32.8231 115.682 33.4661C115.627 33.9973 115.328 34.2933 114.712 34.4261C114.274 34.5205 113.447 34.5095 112.635 34.3984C112.275 34.3492 112.278 34.3548 112.364 33.9475C112.483 33.3859 112.642 33.0445 112.932 32.7301C113.193 32.4482 113.486 32.2817 113.86 32.2036C114.104 32.1527 114.638 32.1721 114.902 32.2414ZM104.329 32.3539C104.613 32.4211 105.031 32.5684 105.139 32.6387C105.298 32.7431 105.289 32.5774 105.283 35.1882C105.277 37.9121 105.307 37.6288 105.009 37.7884C104.065 38.2929 102.885 38.2568 102.266 37.7045C101.908 37.3854 101.677 36.8735 101.566 36.1542C101.509 35.7859 101.489 34.9901 101.526 34.6065C101.649 33.355 102.037 32.6525 102.756 32.3805C103.013 32.2833 103.116 32.2712 103.61 32.281C103.978 32.2883 104.108 32.3014 104.329 32.3539ZM124.265 32.4115C124.564 32.4767 124.793 32.6065 125.03 32.8446C125.47 33.2877 125.694 33.9045 125.767 34.877C125.834 35.7589 125.666 36.7993 125.373 37.3171C125.035 37.9153 124.554 38.196 123.86 38.1991C123.51 38.2007 123.334 38.1631 123.051 38.0262C122.272 37.6499 121.884 36.6343 121.922 35.0773C121.95 33.9449 122.253 33.1301 122.807 32.6986C123.19 32.4002 123.728 32.2941 124.265 32.4115Z" fill="white"/>
<path d="M3 1H157V-1H3V1ZM159 3V69H161V3H159ZM157 71H3V73H157V71ZM1 69V3H-1V69H1ZM3 71C1.89543 71 1 70.1046 1 69H-1C-1 71.2091 0.790864 73 3 73V71ZM159 69C159 70.1046 158.105 71 157 71V73C159.209 73 161 71.2091 161 69H159ZM157 1C158.105 1 159 1.89543 159 3H161C161 0.79086 159.209 -1 157 -1V1ZM3 -1C0.790861 -1 -1 0.790863 -1 3H1C1 1.89543 1.89543 1 3 1V-1Z" fill="url(#paint1_linear_6:331)"/>
<defs>
<linearGradient id="paint0_linear_6:331" x1="80" y1="0" x2="80" y2="72" gradientUnits="userSpaceOnUse">
<stop stop-color="#1F2937"/>
<stop offset="1"/>
</linearGradient>
<linearGradient id="paint1_linear_6:331" x1="160" y1="-5.29819e-06" x2="-1.66893e-07" y2="72" gradientUnits="userSpaceOnUse">
<stop/>
<stop offset="0.904525" stop-color="#354253"/>
<stop offset="1" stop-color="#1A2330"/>
</linearGradient>
</defs>
</svg>
